HIERARCHY
ROOT Hips
{
	OFFSET -0.242314870503 -22.6634663824 2.41329003422
	CHANNELS 6 Xposition Yposition Zposition Zrotation Yrotation Xrotation
	JOINT LeftHip
	{
		OFFSET 6.58988745377 -8.98237523997 -0.79650377361
		CHANNELS 3 Zrotation Yrotation Xrotation
		JOINT LeftKnee
		{
			OFFSET 3.60529747958 -37.2526228519 -0.146293558333
			CHANNELS 3 Zrotation Yrotation Xrotation
			JOINT LeftFoot
			{
				OFFSET -1.40955064669 -39.2776322648 -4.16839495594
				CHANNELS 3 Zrotation Yrotation Xrotation
				End LeftToe
				{
                                  OFFSET 2.69547614604 -5.48487795955 11.8893774153
				}
			}
		}
	}
	JOINT RightHip
	{
		OFFSET -6.42034844887 -8.87357864365 -0.605201432519
		CHANNELS 3 Zrotation Yrotation Xrotation
		JOINT RightKnee
		{
			OFFSET -3.90775680015 -37.9781251566 -0.650456666336
			CHANNELS 3 Zrotation Yrotation Xrotation
			JOINT RightFoot
			{
				OFFSET 1.62675828455 -39.2980254609 -4.01840293152
				CHANNELS 3 Zrotation Yrotation Xrotation
				End RightToe
				{
                                        OFFSET -2.46308951604 -4.77899402765 12.301905438
				}
			}
		}
	}
	JOINT Waist
	{
		OFFSET -0.261332934496 10.8324278896 -2.50703753699
		CHANNELS 3 Zrotation Yrotation Xrotation
		JOINT Spine
		{
			OFFSET 0.641707815284 13.8983909745 0.408868467961
			CHANNELS 3 Zrotation Yrotation Xrotation
                        JOINT Chest
                        {
                            OFFSET 0.129456050917 5.40251554175 2.26048356027
                            CHANNELS 3 Zrotation Yrotation Xrotation
                            JOINT Neck
                            {
                                OFFSET -0.349791317082 21.2072832644 -3.84271327871
                                CHANNELS 3 Zrotation Yrotation Xrotation
                                End Head
                                {
                                        OFFSET 0.131283450216 26.8119899411 2.00311853184
                                }
                            }
                            JOINT LeftInnerShoulder
                            {
                                OFFSET 7.85592684822 12.0480889203 -3.11598495644
                                CHANNELS 3 Zrotation Yrotation Xrotation
                                JOINT LeftShoulder
                                {
                                        OFFSET 9.24164709358 2.93844315136 -0.876048360396
                                        CHANNELS 3 Zrotation Yrotation Xrotation
                                        JOINT LeftElbow
                                        {
                                                OFFSET 25.7743429389 -1.2750402503 -2.57008042329
                                                CHANNELS 3 Zrotation Yrotation Xrotation
                                                End LeftWrist
                                                {
                                                        OFFSET 24.7739132875 0.821875630441 -0.213383596728
                                                }
                                        }
                                }
                            }
                            JOINT RightInnerShoulder
                            {
                                OFFSET -8.21870681578 11.7167813586 -3.54369027671
                                CHANNELS 3 Zrotation Yrotation Xrotation
                                JOINT RightShoulder
                                {
                                        OFFSET -9.76895969294 3.21484107679 -0.85405059757
                                        CHANNELS 3 Zrotation Yrotation Xrotation
                                        JOINT RightElbow
                                        {
                                                OFFSET -25.1044201813 -1.32441371556 -1.99929150244
                                                CHANNELS 3 Zrotation Yrotation Xrotation
                                                End RightWrist
                                                {
                                                        OFFSET -25.3308208961 0.653028068294 -0.664514029639
                                                }
                                        }
                                }
                            }
                        }
                }
            }
}
MOTION
Frames: 24
Frame Time: 0.0333333333333
0.00000 0.00000 0.00000 2.78188 0.44629 -8.79568 11.58971 0.26074 -20.94866 -7.44863 -4.23190 58.46761 -4.53184 19.71752 -20.40970 -10.03615 -4.45632 -20.45174 6.22496 6.21337 64.23953 14.82441 -17.09114 -17.97446 0.06454 0.33240 16.15082 2.10373 1.39061 -5.74382 1.89679 -1.05181 7.63997 5.85579 -1.54644 -7.20285 -6.03503 11.22376 -2.14196 -38.46121 -7.23514 -4.26824 10.89716 -34.97041 -14.24624 3.10111 -6.49043 -6.51281 39.16969 3.82593 6.13372 -16.65931 36.67074 -9.92204
1.98920 -0.07071 -0.00485 2.29666 -0.45872 -9.21616 11.14819 -0.76473 -21.30030 -7.65411 -4.63731 59.10704 -4.03567 20.63262 -20.93562 -9.92618 -4.08930 -21.68851 6.43504 6.50567 65.00735 14.80673 -17.93346 -19.59191 0.44047 0.30910 16.19434 2.30429 1.65933 -6.13898 2.00274 -0.74898 7.84152 5.29113 -2.19464 -6.06292 -5.61727 10.66483 -3.26081 -36.22957 -8.48784 -5.49216 12.20290 -32.50693 -19.47156 2.59669 -6.07261 -6.30069 35.07078 4.01866 4.59141 -16.83352 35.68176 -10.07790
4.25554 -1.01953 0.01019 2.03478 -0.39496 -9.38627 9.75750 -0.95442 -20.08559 -7.60938 -5.50742 58.84716 -2.47491 21.24626 -22.09864 -10.00144 -4.11740 -21.19479 5.66028 7.55106 63.22304 15.29402 -18.49140 -17.12576 0.48319 0.56557 16.56327 2.42438 1.57328 -6.30357 2.09899 -0.55572 7.92601 4.66794 -2.48147 -5.33489 -3.99697 9.46812 -3.67667 -33.15623 -9.64386 -7.04621 9.50178 -30.32315 -18.38456 1.19954 -6.22978 -6.88025 34.02185 3.56292 3.82671 -18.08985 35.09309 -11.11719
7.52348 -0.21794 -0.01831 1.75762 0.61376 -8.92246 9.99399 -0.93400 -20.76455 -8.60456 -5.12161 60.50562 -2.82739 21.69587 -23.43560 -10.42534 -4.36626 -22.06996 6.96969 7.88016 64.84835 16.72501 -18.27582 -16.23235 0.62981 0.37207 15.88344 2.62716 1.66133 -6.62918 2.16428 -0.82574 8.21931 5.81285 -2.08203 -5.01974 -3.87531 10.20268 -3.90146 -31.34527 -9.95647 -7.96067 12.44727 -31.37755 -25.52010 0.11391 -6.67183 -7.45002 31.97916 3.74942 3.56208 -16.99548 34.95440 -15.56514
10.71979 -0.91482 0.02962 1.15662 0.64914 -8.80600 10.13895 -1.07267 -20.16745 -9.07986 -5.36659 61.78206 -3.11739 21.18028 -22.18969 -10.50497 -4.51002 -21.54753 7.02603 7.46897 64.43429 15.24185 -18.49539 -15.44607 0.97274 -0.13747 16.03056 2.72352 1.35841 -6.54581 2.52964 -1.27362 8.13569 6.33030 -4.13973 -5.23128 -2.56736 10.52990 -3.67548 -32.14937 -10.58088 -8.75413 13.88896 -31.81353 -28.98968 -2.12634 -7.19654 -7.89556 31.62351 4.10846 2.35465 -17.98985 35.19735 -19.09034
13.13047 -0.32839 0.01168 1.03576 1.40992 -8.20177 10.33475 -0.79180 -20.01152 -9.48133 -4.65714 61.07834 -3.53443 20.59242 -21.32072 -11.42498 -5.31247 -22.27565 6.42240 6.22615 64.37296 16.93487 -19.05608 -15.12667 0.79670 0.11036 15.49011 3.07898 1.10544 -6.92213 2.42023 -1.07562 8.17221 6.17679 -3.32987 -5.58225 -0.26329 10.64388 -3.70617 -30.76200 -10.27344 -9.00452 13.56296 -32.72120 -28.78564 -2.57746 -7.89323 -7.86833 31.14526 3.67338 0.77252 -19.56936 33.05539 -20.91076
17.66959 0.31568 0.00208 0.39790 1.52900 -7.74175 10.50398 -0.75939 -20.98855 -8.15615 -3.67297 61.57939 -3.34784 22.12446 -22.93205 -11.43765 -5.29277 -20.91815 6.22700 6.25828 62.80532 16.42234 -19.40287 -14.17890 0.66377 0.34266 15.64651 3.69636 1.05480 -7.18993 2.87544 -1.17469 8.23387 6.19241 -5.05677 -5.81403 -1.08007 10.69305 -3.86920 -29.31781 -11.50521 -9.87593 15.45954 -33.35468 -32.66234 -1.36506 -8.12217 -8.08645 30.48584 3.36721 1.02234 -21.37765 33.75824 -25.60547
18.66338 -0.33276 0.03898 0.43956 0.68902 -8.07806 9.79948 -1.20407 -19.90195 -9.28015 -4.82957 61.26819 -2.79190 20.67569 -21.15424 -12.66327 -5.60587 -22.94292 6.38106 6.16793 63.85849 16.42130 -19.43938 -14.11079 1.28691 -0.06082 16.01963 3.12164 1.58744 -7.08527 2.52485 -0.98524 8.16528 6.06485 -4.98819 -6.20898 -0.24995 10.91970 -4.11276 -29.71733 -11.51365 -9.84889 16.44621 -34.72487 -35.10293 -2.51318 -8.20154 -8.05358 31.33351 2.73435 1.41037 -22.13293 35.98099 -27.53271
20.54359 0.26996 0.04176 0.29620 0.26517 -8.08111 9.80024 -0.70759 -20.09308 -9.00128 -3.71412 60.73153 -2.63985 20.86329 -22.60225 -12.96602 -6.96350 -23.73403 5.50151 4.19188 62.14051 16.79192 -19.04664 -13.94348 1.65453 0.16830 16.40703 3.55401 1.65431 -7.09837 3.03559 -0.78190 8.14243 5.69861 -5.35346 -5.82017 0.23299 11.31010 -4.32461 -29.92424 -11.87675 -10.33443 16.75861 -33.80683 -35.81891 -2.61766 -8.75305 -7.57899 30.82515 2.59906 0.21788 -22.66033 35.65349 -26.99862
22.24477 1.14312 0.03650 0.08407 -0.31352 -8.00736 9.81838 0.16904 -20.21350 -9.14544 -3.55478 60.52193 -2.60098 20.68716 -22.82468 -14.07851 -7.47743 -24.07261 6.52330 4.39712 62.50517 16.91853 -19.34575 -15.75913 2.27063 -0.00273 16.50704 3.29915 1.88593 -7.22839 2.83942 -0.65825 8.20313 5.75354 -5.36514 -5.95787 0.48520 11.18724 -4.76144 -29.10137 -11.01632 -10.25542 13.82334 -33.64849 -32.15290 -2.56781 -8.55217 -7.82297 29.30232 2.58716 0.28883 -20.87305 36.80399 -26.63432
23.26755 0.74135 -0.02200 -0.47540 -2.01404 -7.72814 10.34401 0.21953 -20.55048 -10.03336 -3.33038 61.27345 -2.67055 20.50775 -24.63022 -14.81556 -8.49658 -24.24612 6.86960 3.08416 63.49957 17.23861 -19.16998 -18.25938 2.56357 0.24459 16.36159 3.67491 2.38617 -6.65690 3.03549 -0.21782 8.27526 5.98428 -5.85627 -6.10614 -0.15274 11.75629 -4.78787 -28.96356 -11.16770 -10.62622 14.60828 -34.49283 -34.03233 -1.65351 -7.79499 -7.18404 28.14792 3.09972 -0.48193 -19.85921 35.67669 -27.51132
24.05688 2.02938 -0.00491 -0.01994 -3.20779 -8.10395 9.80093 1.10420 -20.23222 -9.80098 -3.10643 59.59063 -2.11175 21.22056 -26.24418 -15.34505 -9.38413 -27.00457 6.45337 2.04249 63.62513 17.35052 -19.70196 -17.62299 2.97449 -0.08939 17.76452 3.92860 3.00195 -7.55553 3.61489 -0.13386 8.22879 7.02486 -6.25047 -5.57936 0.10902 12.39511 -5.27636 -27.21339 -10.73455 -11.73716 14.66792 -34.22432 -33.68304 -2.18512 -7.82640 -7.75492 26.71884 3.75135 -1.04935 -19.25267 34.69730 -25.97680
24.54460 1.37319 0.00636 -0.35529 -3.49304 -7.16714 10.29439 1.88275 -20.58993 -10.03308 -2.81814 61.67304 -2.50493 21.65938 -24.54745 -15.65448 -10.34347 -29.96188 6.87991 0.56611 66.69740 16.59857 -18.15561 -18.63530 3.70020 -0.42126 18.48157 4.19558 3.31563 -8.39781 3.96260 -0.19398 8.17219 7.22746 -3.85129 -5.78907 0.44000 12.66966 -5.32911 -27.17845 -9.42335 -11.15410 11.29060 -30.42209 -29.45289 -3.03347 -8.42788 -7.45732 26.65009 3.59155 -0.71537 -16.65828 35.47516 -21.39754
22.88456 0.38147 0.04565 -0.16492 -4.15321 -6.96313 10.30523 2.03237 -21.88456 -10.17517 -3.08535 65.23052 -2.34153 22.46930 -25.95447 -14.86487 -10.28874 -32.54955 8.10710 -0.05957 69.73184 15.86369 -17.66879 -21.04356 4.29340 -0.62086 19.60998 4.17087 3.60195 -8.79569 4.13466 0.09240 8.17833 7.02907 -4.51614 -6.73955 1.11208 12.30404 -6.04272 -27.12730 -8.30963 -11.77731 9.23211 -29.28292 -26.44190 -4.09953 -8.17268 -7.47811 25.50378 2.96379 -1.39847 -15.28675 37.59823 -18.11094
21.78052 -0.97688 0.05016 0.44704 -4.68850 -6.87278 10.52290 2.21177 -22.40335 -9.95642 -2.25009 64.88934 -3.03876 22.28438 -23.10225 -15.23020 -10.33709 -32.82629 7.49817 -0.14477 69.92517 16.13829 -18.13975 -18.40112 3.86217 -0.09395 19.97516 4.35170 3.92562 -8.97867 4.25423 0.56773 7.97113 7.23137 -5.53585 -5.98143 2.00954 11.86795 -6.13495 -24.96501 -8.30552 -12.10618 9.02650 -27.80717 -28.92648 -4.08618 -6.90520 -7.61378 25.96398 3.00382 -1.47678 -16.16351 35.01869 -21.97351
17.50261 -0.42506 0.05866 0.85521 -4.33020 -6.99834 10.33204 1.94407 -23.46339 -9.22378 -2.49184 65.24835 -3.79100 23.08998 -22.00359 -14.92265 -10.16984 -32.13906 7.92940 0.36951 70.56462 17.22775 -18.24511 -19.00280 3.78703 0.49755 19.73285 5.01571 3.64002 -8.69552 4.49023 0.66036 8.21932 8.08462 -3.61392 -6.59851 3.21519 11.38806 -6.90567 -22.79735 -8.34275 -12.58905 7.05481 -25.20460 -26.53523 -3.93794 -6.96151 -7.73854 25.81327 2.99410 -2.39363 -15.82781 32.26107 -21.71161
15.36716 -2.65217 0.07624 1.30571 -4.53354 -6.84775 10.28409 2.43224 -22.61747 -9.42863 -2.72132 63.98267 -3.75148 23.19774 -20.29696 -15.18539 -10.10541 -32.60993 8.19527 -0.67288 72.07165 16.20764 -18.97007 -15.69720 4.14689 0.11457 20.78987 5.51380 3.44421 -7.92127 4.53891 0.39218 7.43068 8.04363 -5.37427 -6.43701 0.87423 9.58794 -6.76133 -18.06503 -6.33422 -13.54194 8.07754 -26.20455 -27.93075 -2.03990 -5.01136 -8.09007 21.61309 2.19677 -2.35120 -17.03576 35.56714 -24.34946
11.38204 -4.10388 0.07336 2.23615 -3.02259 -6.02093 10.39779 2.64071 -24.60922 -8.64020 -2.40845 64.09813 -4.50780 23.42650 -19.83939 -15.89063 -10.61578 -32.94817 7.38413 -0.61521 72.82161 16.52068 -20.67907 -17.84313 4.14186 0.15769 21.31528 5.64082 3.29684 -9.22540 4.91980 0.11407 7.53915 8.69379 -3.91665 -8.32140 2.59742 10.28946 -6.93758 -16.91171 -5.85270 -13.21266 6.88437 -26.52350 -20.79648 -2.39378 -5.58298 -8.56955 21.62368 2.38767 -2.78793 -14.76876 33.42235 -21.18674
8.46177 -4.02437 0.08215 2.71973 -3.51103 -5.05925 10.72133 2.02413 -24.00931 -8.54400 -1.93711 63.28725 -6.13063 24.36951 -20.31258 -16.29874 -10.90300 -34.49828 7.39008 -2.20374 74.48531 17.12040 -20.81967 -20.88372 4.31145 0.16600 20.62513 6.37812 3.17946 -8.81475 5.16506 0.41217 7.21559 9.87616 -3.92109 -9.90270 2.53242 8.13646 -7.83805 -13.26187 -4.97775 -12.88972 7.34216 -25.84272 -24.72823 -1.53830 -3.23959 -8.54987 19.02620 2.51050 -3.51567 -14.31340 34.00355 -22.10641
4.87707 -5.82851 0.04591 3.81419 -5.00269 -4.82000 10.40841 2.70205 -22.60766 -8.80042 -2.34868 60.08599 -5.34597 24.34705 -23.06764 -16.69102 -10.42812 -35.09857 7.48048 -1.18575 73.26027 18.19218 -20.75562 -17.72127 4.09634 0.12070 21.18997 7.07752 3.70952 -8.17976 5.64951 0.68431 6.76215 9.91598 -1.97653 -10.13802 1.36086 8.17841 -7.71781 -9.27907 -3.59873 -13.64427 6.12487 -26.48354 -25.58194 0.53546 -1.60494 -8.95725 14.99154 5.19353 -4.09056 -12.69081 31.61784 -23.28187
-0.42570 -6.11073 0.05348 6.49571 -5.24758 -5.66025 9.67592 2.42472 -21.67728 -11.35375 -3.15689 61.30286 -5.72960 22.26458 -22.25534 -17.65081 -11.16091 -36.30166 8.30843 -1.53257 76.95906 19.82716 -19.34497 -17.09511 4.50752 0.25716 21.59732 7.29470 3.42831 -6.34775 5.24357 1.31178 6.66098 8.54185 -2.51439 -9.61931 4.68542 6.24673 -8.03742 -8.98451 -4.39008 -15.85900 4.96739 -24.29482 -30.56953 -1.66568 -0.84996 -8.05809 17.85351 2.49722 -4.76912 -15.79094 32.09934 -28.77530
-4.40916 -6.53584 0.09854 7.18066 -5.04353 -6.13302 8.92658 2.39937 -21.94554 -12.10159 -2.61109 62.09781 -4.34509 22.63686 -24.60823 -17.12888 -10.50031 -37.30195 9.35937 -0.93640 77.94981 19.56583 -18.01496 -16.66976 4.48463 0.46390 21.81994 8.55648 3.28088 -6.43548 5.98929 1.34686 7.14635 9.41915 -0.80365 -9.07678 5.56982 6.15879 -8.72052 -6.98492 -4.50819 -16.83426 1.96224 -22.16702 -33.27298 -1.69170 -1.72378 -8.23936 16.89898 2.57075 -4.20247 -16.46638 33.43656 -28.54460
-8.09382 -6.87691 0.04513 8.21242 -4.48778 -6.29926 8.51198 3.20077 -20.50536 -13.25071 -3.72485 60.94825 -3.87319 22.35878 -25.81999 -17.87376 -10.59839 -37.10668 8.43479 -0.90833 78.60232 17.09387 -18.25457 -18.09107 4.97735 -0.30987 22.71464 9.15999 3.18080 -6.17547 6.81605 0.94623 7.14619 9.15412 -2.16199 -6.95201 7.53240 7.95170 -7.67841 -9.55031 -3.81740 -17.09046 5.04474 -23.83383 -29.85842 -3.48166 -2.38317 -8.08117 18.54976 4.12128 -4.53326 -16.16815 33.88536 -24.77718
-11.32419 -7.21960 0.01898 9.26318 -4.27457 -5.60376 8.60041 2.96602 -20.78876 -12.63451 -3.74699 59.85107 -6.29526 22.83003 -22.39061 -18.02820 -10.80688 -38.13785 9.51059 -1.42268 77.46725 16.82359 -17.03546 -20.14518 6.09069 -0.61196 22.08060 10.00923 3.19284 -5.68794 7.38404 1.22542 7.51502 9.44127 -1.14395 -7.41928 9.35615 8.55587 -8.88347 -8.82972 -3.79984 -17.11221 6.01183 -23.94383 -30.64040 -3.96928 -2.23104 -8.19682 17.29152 4.77612 -6.01430 -15.03864 30.82978 -26.28933
